<svg width="32" height="32" viewBox="0 0 32 32" fill="none" xmlns="http://www.w3.org/2000/svg">
<g id="instagram 1" clip-path="url(#clip0_35:9)">
<path id="Vector" d="M0.547852 26.2764C0.839111 29.0054 2.99438 31.1611 5.72363 31.4521C12.5679 32.1826 19.4321 32.1826 26.2761 31.4521C29.0054 31.1609 31.1609 29.0054 31.4521 26.2764C32.1826 19.4324 32.1826 12.5679 31.4521 5.72388C31.1609 2.99463 29.0054 0.839111 26.2764 0.547852C19.4324 -0.182617 12.5679 -0.182617 5.72363 0.547852C2.99438 0.839111 0.839111 2.99463 0.547852 5.72388C-0.182617 12.5679 -0.182617 19.4321 0.547852 26.2764Z" fill="url(#paint0_radial_35:9)"/>
<path id="Vector_2" d="M2.28833 25.1188C2.54663 27.5404 4.45923 29.4532 6.88111 29.7118C12.9543 30.3597 19.0457 30.3597 25.1189 29.7118C27.5405 29.4532 29.4534 27.5404 29.7119 25.1188C30.3599 19.0455 30.3599 12.9542 29.7119 6.88123C29.4534 4.45935 27.5405 2.54651 25.1189 2.28821C19.0457 1.64001 12.9543 1.64001 6.88135 2.28821C4.45948 2.54651 2.54663 4.45935 2.28833 6.88123C1.64014 12.9542 1.64014 19.0455 2.28833 25.1188Z" fill="url(#paint1_linear_35:9)"/>
<path id="Vector_3" d="M31.5205 6.38721C31.4985 6.16602 31.4758 5.94482 31.4521 5.72363C31.1609 2.99463 29.0054 0.839109 26.2761 0.54785C19.4321 -0.18262 12.5676 -0.18262 5.72363 0.54785C2.99438 0.839109 0.839111 2.99463 0.547852 5.72363C0.52417 5.94482 0.501465 6.16602 0.479248 6.38721H31.5205Z" fill="url(#paint2_linear_35:9)"/>
<path id="Vector_4" d="M0.547852 5.72368C0.155273 9.40117 -0.0258789 13.0845 0.00341797 16.7674L7.31787 24.0818C8.23169 25.125 9.56641 25.7762 11.1348 25.8326C14.3601 25.9488 17.5957 25.9429 20.8215 25.8321C23.5007 25.7398 25.3743 23.939 25.8547 21.2923C25.9395 20.825 25.9902 20.3516 26.0569 19.8809V12.1216C26.02 11.8702 25.9658 11.6199 25.949 11.367C25.8416 9.75713 25.1799 8.37822 24.1206 7.44536L16.6772 0.00224686C13.0244 -0.0233879 9.37134 0.158253 5.72363 0.547657C2.99438 0.838917 0.839111 2.99443 0.547852 5.72368Z" fill="url(#paint3_linear_35:9)"/>
<path id="Vector_5" d="M0.54785 5.72363C0.838865 2.99487 2.99487 0.838869 5.72363 0.547853C9.37085 0.158693 13.0247 -0.0231915 16.677 0.00244331L24.1091 7.43457C23.2476 6.68042 22.1245 6.22119 20.8213 6.17212C17.5962 6.05103 14.3599 6.0542 11.1348 6.17041C8.21777 6.27588 6.10693 8.43482 6.01587 11.3518C5.9187 14.449 5.9187 17.5542 6.01587 20.6514C6.05737 21.9971 6.52978 23.1812 7.31299 24.0771L0.00317001 16.7673C-0.0256367 13.085 0.155514 9.40112 0.54785 5.72363Z" fill="url(#paint4_linear_35:9)"/>
<path id="Vector_6" d="M12.2241 19.4651C13.1611 20.4854 14.5056 21.1255 16 21.1255C18.8306 21.1255 21.1255 18.8306 21.1255 16C21.1255 14.5056 20.4854 13.1611 19.4651 12.2241L7.60645 0.365479C6.97876 0.420166 6.35107 0.480957 5.72388 0.547852C2.99463 0.839111 0.839111 2.99463 0.547852 5.72388C0.480957 6.35107 0.420166 6.97876 0.365479 7.60645L12.2241 19.4651Z" fill="url(#paint5_linear_35:9)"/>
<path id="Vector_7" d="M0.0620117 12.553L9.60596 22.0967C9.82861 22.3889 10.1794 22.5786 10.5752 22.5786C11.2485 22.5786 11.7947 22.0327 11.7947 21.3591C11.7947 20.9634 11.605 20.6125 11.3127 20.3899L0.232666 9.30957C0.157471 10.3904 0.100586 11.4717 0.0620117 12.553Z" fill="url(#paint6_linear_35:9)"/>
<path id="Vector_8" d="M26.0569 19.8809C25.9902 20.3516 25.9395 20.825 25.8547 21.2923C25.3745 23.939 23.5007 25.7398 20.8215 25.8321C17.5957 25.9429 14.3601 25.9488 11.1348 25.8326C8.21875 25.7276 6.10693 23.5684 6.01587 20.6514C5.91895 17.554 5.91895 14.449 6.01587 11.3516C6.10693 8.43461 8.21802 6.27568 11.1345 6.17045C14.3599 6.054 17.5962 6.05107 20.8213 6.17216C23.7378 6.28178 25.7539 8.44584 25.949 11.3672C25.9658 11.6199 26.02 11.8704 26.0569 12.1219C26.0569 14.7083 26.0569 17.2947 26.0569 19.8809ZM15.9973 7.89921C14.5212 7.89921 13.0437 7.85502 11.5696 7.90947C9.2583 7.99516 7.83667 9.37455 7.78271 11.6836C7.71582 14.5608 7.71582 17.4419 7.78271 20.3194C7.83667 22.628 9.25928 24.0396 11.5696 24.0887C14.502 24.1507 17.4375 24.1502 20.3699 24.0887C22.6626 24.0406 24.0884 22.6575 24.1506 20.3743C24.2297 17.4607 24.2297 14.542 24.1506 11.6285C24.0884 9.3455 22.6626 7.99443 20.3696 7.90947C18.9141 7.85527 17.4548 7.89921 15.9973 7.89921Z" fill="url(#paint7_linear_35:9)"/>
<g id="Group">
<path id="Vector_9" d="M26.0569 19.8809C25.9902 20.3516 25.9395 20.825 25.8547 21.2923C25.3745 23.939 23.5007 25.7398 20.8215 25.8321C17.5957 25.9429 14.3601 25.9488 11.1348 25.8326C8.21875 25.7276 6.10693 23.5684 6.01587 20.6514C5.91895 17.554 5.91895 14.449 6.01587 11.3516C6.10693 8.43461 8.21802 6.27568 11.1345 6.17045C14.3599 6.054 17.5962 6.05107 20.8213 6.17216C23.7378 6.28178 25.7539 8.44584 25.949 11.3672C25.9658 11.6199 26.02 11.8704 26.0569 12.1219C26.0569 14.7083 26.0569 17.2947 26.0569 19.8809ZM15.9973 7.89921C14.5212 7.89921 13.0437 7.85502 11.5696 7.90947C9.2583 7.99516 7.83667 9.37455 7.78271 11.6836C7.71582 14.5608 7.71582 17.4419 7.78271 20.3194C7.83667 22.628 9.25928 24.0396 11.5696 24.0887C14.502 24.1507 17.4375 24.1502 20.3699 24.0887C22.6626 24.0406 24.0884 22.6575 24.1506 20.3743C24.2297 17.4607 24.2297 14.542 24.1506 11.6285C24.0884 9.3455 22.6626 7.99443 20.3696 7.90947C18.9141 7.85527 17.4548 7.89921 15.9973 7.89921Z" fill="white"/>
<path id="Vector_10" d="M16 21.125C18.8306 21.125 21.1255 18.8303 21.1255 15.9998C21.1255 13.1689 18.8306 10.8743 16 10.8743C13.1692 10.8743 10.8745 13.1689 10.8745 15.9998C10.8745 18.8303 13.1692 21.125 16 21.125ZM16 12.6389C17.8562 12.6389 19.3608 14.1436 19.3608 15.9998C19.3608 17.856 17.8562 19.3606 16 19.3606C14.1438 19.3606 12.6392 17.856 12.6392 15.9998C12.6392 14.1436 14.1438 12.6389 16 12.6389Z" fill="white"/>
<path id="Vector_11" d="M9.35596 21.3591C9.35596 20.6858 9.90186 20.1399 10.5752 20.1399C11.2485 20.1399 11.7947 20.6858 11.7947 21.3591C11.7947 22.0327 11.2485 22.5786 10.5752 22.5786C9.90186 22.5786 9.35596 22.0327 9.35596 21.3591Z" fill="white"/>
</g>
</g>
<defs>
<radialGradient id="paint0_radial_35:9" cx="0" cy="0" r="1" gradientUnits="userSpaceOnUse" gradientTransform="translate(25.4402 4.03454) rotate(180) scale(35.2904)">
<stop stop-color="#FAE100"/>
<stop offset="0.0544" stop-color="#FADC04"/>
<stop offset="0.1167" stop-color="#FBCE0E"/>
<stop offset="0.1829" stop-color="#FCB720"/>
<stop offset="0.2514" stop-color="#FE9838"/>
<stop offset="0.3054" stop-color="#FF7950"/>
<stop offset="0.4922" stop-color="#FF1C74"/>
<stop offset="1" stop-color="#6C1CD1"/>
</radialGradient>
<linearGradient id="paint1_linear_35:9" x1="19.7267" y1="18.0961" x2="73.9385" y2="48.5903" gradientUnits="userSpaceOnUse">
<stop stop-color="#A1B5D8" stop-opacity="0"/>
<stop offset="0.3094" stop-color="#90A2BD" stop-opacity="0.309804"/>
<stop offset="0.7554" stop-color="#7C8B9C" stop-opacity="0.756863"/>
<stop offset="1" stop-color="#748290"/>
</linearGradient>
<linearGradient id="paint2_linear_35:9" x1="16" y1="3.75212" x2="16" y2="-1.23588" gradientUnits="userSpaceOnUse">
<stop stop-color="#FAE100" stop-opacity="0"/>
<stop offset="0.3068" stop-color="#FCA800" stop-opacity="0.305882"/>
<stop offset="0.6275" stop-color="#FE7300" stop-opacity="0.627451"/>
<stop offset="0.8685" stop-color="#FF5200" stop-opacity="0.866667"/>
<stop offset="1" stop-color="#FF4500"/>
</linearGradient>
<linearGradient id="paint3_linear_35:9" x1="17.8205" y1="17.8656" x2="25.74" y2="25.785" gradientUnits="userSpaceOnUse">
<stop stop-color="#833AB4" stop-opacity="0"/>
<stop offset="1" stop-color="#833AB4"/>
</linearGradient>
<linearGradient id="paint4_linear_35:9" x1="10.0688" y1="2.73204" x2="14.0215" y2="21.3664" gradientUnits="userSpaceOnUse">
<stop stop-color="#833AB4" stop-opacity="0"/>
<stop offset="1" stop-color="#833AB4"/>
</linearGradient>
<linearGradient id="paint5_linear_35:9" x1="8.56468" y1="8.56469" x2="24.4412" y2="24.4412" gradientUnits="userSpaceOnUse">
<stop stop-color="#833AB4" stop-opacity="0"/>
<stop offset="1" stop-color="#833AB4"/>
</linearGradient>
<linearGradient id="paint6_linear_35:9" x1="7.38708" y1="18.1711" x2="12.6371" y2="23.4211" gradientUnits="userSpaceOnUse">
<stop stop-color="#833AB4" stop-opacity="0"/>
<stop offset="1" stop-color="#833AB4"/>
</linearGradient>
<linearGradient id="paint7_linear_35:9" x1="9.64636" y1="22.3092" x2="22.5911" y2="9.36448" gradientUnits="userSpaceOnUse">
<stop stop-color="#833AB4"/>
<stop offset="0.0922" stop-color="#9C3495"/>
<stop offset="0.2927" stop-color="#DC2546"/>
<stop offset="0.392" stop-color="#FD1D1D"/>
<stop offset="0.5589" stop-color="#FC6831"/>
<stop offset="0.6887" stop-color="#FC9B40"/>
<stop offset="0.7521" stop-color="#FCAF45"/>
<stop offset="0.7806" stop-color="#FDB750"/>
<stop offset="0.8656" stop-color="#FECB6A"/>
<stop offset="0.9415" stop-color="#FFD87A"/>
<stop offset="1" stop-color="#FFDC80"/>
</linearGradient>
<clipPath id="clip0_35:9">
<rect width="32" height="32" fill="white" transform="translate(32 32) rotate(-180)"/>
</clipPath>
</defs>
</svg>
