<svg width="32" height="32" viewBox="0 0 32 32" fill="none" xmlns="http://www.w3.org/2000/svg">
<g id="twitter 1">
<path id="Vector" d="M26.2764 31.4521C19.4324 32.1826 12.5676 32.1826 5.72363 31.4521C2.99463 31.1609 0.839111 29.0054 0.547852 26.2761C-0.182617 19.4321 -0.182617 12.5676 0.547852 5.72363C0.839111 2.99463 2.99463 0.839111 5.72363 0.547852C12.5676 -0.182617 19.4321 -0.182617 26.2761 0.547852C29.0054 0.839111 31.1609 2.99463 31.4521 5.72363C32.1826 12.5676 32.1826 19.4321 31.4521 26.2761C31.1609 29.0054 29.0056 31.1609 26.2764 31.4521Z" fill="url(#paint0_linear_37:56)"/>
<path id="Vector_2" d="M29.7117 6.88123C29.4534 4.45959 27.5408 2.54675 25.1189 2.28821C19.0457 1.64026 12.9543 1.64026 6.8811 2.28821C4.45947 2.54675 2.54663 4.45959 2.28809 6.88123C1.64014 12.9545 1.64014 19.0458 2.28809 25.1188C2.54663 27.5406 4.45947 29.4535 6.8811 29.7118C12.9543 30.36 19.0457 30.36 25.1187 29.7118C27.5405 29.4535 29.4534 27.5406 29.7117 25.1188C30.3599 19.0458 30.3599 12.9545 29.7117 6.88123Z" fill="url(#paint1_linear_37:56)"/>
<path id="Vector_3" d="M0.479492 25.6128C0.501465 25.834 0.52417 26.0552 0.547852 26.2764C0.839111 29.0054 2.99463 31.1609 5.72388 31.4521C12.5679 32.1826 19.4324 32.1826 26.2764 31.4521C29.0056 31.1609 31.1609 29.0054 31.4521 26.2764C31.4758 26.0552 31.4985 25.834 31.5208 25.6128H0.479492Z" fill="url(#paint2_linear_37:56)"/>
<path id="Vector_4" d="M31.9932 14.8755L25.3508 8.2334C24.6064 8.65894 23.9504 8.89502 23.4563 9.02588C23.1785 9.10034 22.9517 9.14087 22.7886 9.16309C22.0396 8.39526 20.9937 7.91846 19.8359 7.91846C17.5581 7.91846 15.7112 9.76514 15.7112 12.0435C15.7112 12.1257 15.7134 12.207 15.7188 12.2881C15.7297 12.4856 15.7549 12.6797 15.7937 12.8684C14.8428 12.8542 11.752 12.6003 8.8042 10.0735C8.80396 10.0735 8.80396 10.0732 8.80396 10.0732H8.80371L7.41357 8.68286C7.41357 8.68286 5.78271 11.5293 8.18042 13.6892C8.28564 13.8066 8.40137 13.9226 8.52808 14.0366C8.53809 14.0479 8.54858 14.0588 8.55859 14.0701C8.2439 14.0488 7.29736 13.9546 6.74951 13.5676C6.74951 13.5676 6.6394 15.3074 8.08887 16.5881L9.25928 17.7686C8.90283 17.7981 8.50854 17.791 8.23438 17.6709C8.23438 17.6709 8.47705 18.7014 9.41504 19.5261L11.0547 21.1743C10.071 21.7473 8.34912 22.4644 6.08252 22.2812L16.0291 32C19.4465 31.999 22.864 31.8164 26.2764 31.4521C29.0056 31.1609 31.1611 29.0054 31.4524 26.2764C31.8574 22.48 32.0374 18.6772 31.9932 14.8755Z" fill="url(#paint3_linear_37:56)"/>
<path id="Vector_5" d="M25.9177 9.83545C25.2097 10.2058 24.1433 10.377 23.7898 10.4263C23.7869 10.4092 23.7839 10.3928 23.781 10.3765C24.9829 9.63306 25.3508 8.2334 25.3508 8.2334C24.6064 8.65894 23.9504 8.89502 23.4563 9.02588C23.1785 9.10034 22.9517 9.14062 22.7886 9.16309C22.0396 8.39502 20.9937 7.91846 19.8359 7.91846C17.5581 7.91846 15.7112 9.76489 15.7112 12.0435C15.7112 12.1255 15.7134 12.207 15.7188 12.2878C15.7297 12.4854 15.7549 12.6794 15.7937 12.8682C14.6912 12.8518 10.7114 12.5137 7.41357 8.68286C7.41357 8.68286 5.57715 11.887 8.66455 14.0757C8.66455 14.0757 7.41357 14.0366 6.74951 13.5676C6.74951 13.5676 6.5542 16.655 10.1101 17.6316C10.1101 17.6316 8.85986 17.9446 8.23413 17.6709C8.23413 17.6709 8.85962 20.3281 11.9858 20.5239C11.9858 20.5239 9.74365 22.5767 6.08228 22.2812C7.88306 23.4214 10.0181 24.0813 12.3071 24.0813C18.7434 24.0813 23.9612 18.8638 23.9612 12.4275C23.9612 12.3472 23.9604 12.2668 23.9587 12.1865C23.9604 12.1389 23.9612 12.0916 23.9612 12.0435C23.9612 12.01 23.9604 11.9766 23.96 11.9431C25.1499 11.1501 25.9177 9.83545 25.9177 9.83545Z" fill="white"/>
</g>
<defs>
<linearGradient id="paint0_linear_37:56" x1="10.6246" y1="4.49914" x2="18.7183" y2="21.8159" gradientUnits="userSpaceOnUse">
<stop stop-color="#00C3FF"/>
<stop offset="1" stop-color="#00B0ED"/>
</linearGradient>
<linearGradient id="paint1_linear_37:56" x1="22.7677" y1="19.6306" x2="-23.7242" y2="-5.30939" gradientUnits="userSpaceOnUse">
<stop stop-color="#00B0ED" stop-opacity="0"/>
<stop offset="1" stop-color="#00A2CE"/>
</linearGradient>
<linearGradient id="paint2_linear_37:56" x1="16" y1="27.3365" x2="16" y2="31.5295" gradientUnits="userSpaceOnUse">
<stop stop-color="#00B0ED" stop-opacity="0"/>
<stop offset="1" stop-color="#00A2CE"/>
</linearGradient>
<linearGradient id="paint3_linear_37:56" x1="30.5888" y1="30.1295" x2="14.9559" y2="14.4966" gradientUnits="userSpaceOnUse">
<stop stop-color="#00B0ED" stop-opacity="0"/>
<stop offset="1" stop-color="#00A2CE"/>
</linearGradient>
</defs>
</svg>
