<svg width="32" height="32" viewBox="0 0 32 32" fill="none" xmlns="http://www.w3.org/2000/svg">
<g id="facebook 1" clip-path="url(#clip0_35:22)">
<path id="Vector" d="M30.2336 5.65512e-08H1.76489C0.790039 0.000488338 -0.000244084 0.79126 5.65512e-08 1.76636V30.2351C0.000488338 31.21 0.79126 32.0002 1.76636 32H30.2336C31.209 32.0002 31.9998 31.2097 32 30.2344C32 30.2341 32 30.2339 32 30.2336V1.76489C31.9995 0.790039 31.2087 -0.000244084 30.2336 5.65512e-08Z" fill="#4267B2"/>
<path id="Vector_2" d="M22.0938 32.0002V19.6252H26.2656L26.8906 14.7815H22.0938V11.6965C22.0938 10.2974 22.4822 9.34399 24.4885 9.34399H27.0312V5.02344C26.5889 4.9646 25.071 4.83301 23.3049 4.83301C19.6174 4.83301 17.0938 7.08301 17.0938 11.2168V14.7815H12.9375V19.6252H17.0938V32.0002H22.0938Z" fill="white"/>
</g>
<defs>
<clipPath id="clip0_35:22">
<rect width="32" height="32" fill="white"/>
</clipPath>
</defs>
</svg>
