<svg width="32" height="32" viewBox="0 0 32 32" fill="none" xmlns="http://www.w3.org/2000/svg">
<g id="linkedin (2) 1">
<path id="Vector" d="M26.2764 31.4521C19.4324 32.1826 12.5676 32.1826 5.72363 31.4521C2.99463 31.1609 0.839111 29.0054 0.547852 26.2761C-0.182617 19.4321 -0.182617 12.5676 0.547852 5.72363C0.839111 2.99463 2.99463 0.839111 5.72363 0.547852C12.5676 -0.182617 19.4321 -0.182617 26.2761 0.547852C29.0054 0.839111 31.1609 2.99463 31.4521 5.72363C32.1826 12.5676 32.1826 19.4321 31.4521 26.2761C31.1609 29.0054 29.0056 31.1609 26.2764 31.4521Z" fill="url(#paint0_linear_36:43)"/>
<path id="Vector_2" d="M29.7117 6.88123C29.4534 4.45959 27.5408 2.54675 25.1189 2.28821C19.0457 1.64026 12.9543 1.64026 6.8811 2.28821C4.45947 2.54675 2.54663 4.45959 2.28809 6.88123C1.64014 12.9545 1.64014 19.0458 2.28809 25.1188C2.54663 27.5406 4.45947 29.4535 6.8811 29.7118C12.9543 30.36 19.0457 30.36 25.1187 29.7118C27.5405 29.4535 29.4534 27.5406 29.7117 25.1188C30.3599 19.0458 30.3599 12.9545 29.7117 6.88123V6.88123Z" fill="url(#paint1_linear_36:43)"/>
<path id="Vector_3" d="M0.479492 25.6128C0.501465 25.834 0.52417 26.0552 0.547852 26.2764C0.839111 29.0054 2.99463 31.1609 5.72388 31.4521C12.5679 32.1826 19.4324 32.1826 26.2764 31.4521C29.0056 31.1609 31.1609 29.0054 31.4521 26.2764C31.4758 26.0552 31.4985 25.834 31.5208 25.6128H0.479492Z" fill="url(#paint2_linear_36:43)"/>
<path id="Vector_4" d="M31.1072 27.7229L10.4568 7.07227C9.99561 6.47046 9.27002 6.08203 8.45337 6.08203C7.0603 6.08203 5.93091 7.21118 5.93091 8.60425C5.93091 9.42114 6.31958 10.1467 6.92139 10.6077L27.5 31.1865C29.1633 30.6331 30.489 29.355 31.1072 27.7229V27.7229Z" fill="url(#paint3_linear_36:43)"/>
<path id="Vector_5" d="M10.572 12.7812H6.33447V25.9175L12.3472 31.9302C16.9912 32.106 21.6384 31.947 26.2761 31.4519C27.0869 31.3655 27.8464 31.1133 28.5222 30.7314L10.572 12.7812Z" fill="url(#paint4_linear_36:43)"/>
<path id="Vector_6" d="M24.9631 13.8821C24.188 13.0322 23.072 12.499 21.8315 12.499C19.8694 12.499 18.603 13.1882 17.8494 13.8281L17.019 12.7817H13.1145V25.918L19.1453 31.9487C21.5237 31.8713 23.9011 31.7058 26.2764 31.4524C29.0056 31.1611 31.1609 29.0056 31.4521 26.2766C31.647 24.4519 31.7893 22.6257 31.8801 20.7991L24.9631 13.8821Z" fill="url(#paint5_linear_36:43)"/>
<g id="Group">
<path id="Vector_7" d="M6.33472 12.7812H10.572V25.9175H6.33472V12.7812Z" fill="white"/>
<path id="Vector_8" d="M21.8315 12.4985C18.7263 12.4985 17.3623 14.2244 17.019 14.7498V12.7812H13.1145V25.9175H17.3521V19.3191C17.3521 17.4124 18.2297 15.9292 19.8945 15.9292C21.5591 15.9292 21.8315 17.7754 21.8315 20.0457V25.9175H26.0691V16.7361C26.0691 14.3958 24.1719 12.4985 21.8315 12.4985V12.4985Z" fill="white"/>
<path id="Vector_9" d="M10.9756 8.60449C10.9756 9.99756 9.84644 11.1267 8.45337 11.1267C7.0603 11.1267 5.93091 9.99756 5.93091 8.60449C5.93091 7.21143 7.0603 6.08203 8.45337 6.08203C9.84644 6.08203 10.9756 7.21143 10.9756 8.60449Z" fill="white"/>
</g>
</g>
<defs>
<linearGradient id="paint0_linear_36:43" x1="10.6246" y1="4.49914" x2="18.7183" y2="21.8159" gradientUnits="userSpaceOnUse">
<stop stop-color="#0077B5"/>
<stop offset="1" stop-color="#0066B2"/>
</linearGradient>
<linearGradient id="paint1_linear_36:43" x1="22.7677" y1="19.6306" x2="-23.7242" y2="-5.30939" gradientUnits="userSpaceOnUse">
<stop stop-color="#0066B2" stop-opacity="0"/>
<stop offset="1" stop-color="#07485E"/>
</linearGradient>
<linearGradient id="paint2_linear_36:43" x1="16" y1="25.9892" x2="16" y2="32.6772" gradientUnits="userSpaceOnUse">
<stop stop-color="#0066B2" stop-opacity="0"/>
<stop offset="1" stop-color="#07485E"/>
</linearGradient>
<linearGradient id="paint3_linear_36:43" x1="16.9596" y1="17.1107" x2="4.99481" y2="5.14589" gradientUnits="userSpaceOnUse">
<stop stop-color="#0066B2" stop-opacity="0"/>
<stop offset="1" stop-color="#07485E"/>
</linearGradient>
<linearGradient id="paint4_linear_36:43" x1="23.9843" y1="28.2267" x2="-0.109786" y2="16.9326" gradientUnits="userSpaceOnUse">
<stop stop-color="#0066B2" stop-opacity="0"/>
<stop offset="1" stop-color="#07485E"/>
</linearGradient>
<linearGradient id="paint5_linear_36:43" x1="29.8457" y1="30.7036" x2="13.0606" y2="13.9186" gradientUnits="userSpaceOnUse">
<stop stop-color="#0066B2" stop-opacity="0"/>
<stop offset="1" stop-color="#07485E"/>
</linearGradient>
</defs>
</svg>
