<svg width="158" height="55" viewBox="0 0 158 55" fill="none" xmlns="http://www.w3.org/2000/svg">
<path d="M43 14H158V47H43V14Z" fill="#1CFFF1"/>
<path d="M76.1875 27.118L73.8438 29.4735C73.7266 29.1454 73.5664 28.8524 73.3633 28.5946C73.1602 28.3289 72.9297 28.1063 72.6719 27.9266C72.4219 27.7469 72.1484 27.6102 71.8516 27.5164C71.5547 27.4227 71.25 27.3758 70.9375 27.3758C70.5 27.3758 70.0859 27.4657 69.6953 27.6454C69.3125 27.825 68.9766 28.0789 68.6875 28.4071C68.4062 28.7274 68.1836 29.1102 68.0195 29.5555C67.8555 30.0008 67.7734 30.493 67.7734 31.0321C67.7734 31.4696 67.8555 31.8797 68.0195 32.2625C68.1836 32.6454 68.4062 32.9813 68.6875 33.2704C68.9766 33.5594 69.3125 33.786 69.6953 33.95C70.0859 34.1141 70.5 34.1961 70.9375 34.1961C71.25 34.1961 71.5508 34.1532 71.8398 34.0672C72.1289 33.9813 72.3984 33.8602 72.6484 33.7039C72.9062 33.5399 73.1328 33.3446 73.3281 33.118C73.5312 32.8836 73.6953 32.6258 73.8203 32.3446L76.1641 34.7C75.8672 35.1219 75.5234 35.5008 75.1328 35.8368C74.75 36.1727 74.332 36.4579 73.8789 36.6922C73.4336 36.9266 72.9609 37.1024 72.4609 37.2196C71.9688 37.3446 71.4609 37.4071 70.9375 37.4071C70.0547 37.4071 69.2227 37.243 68.4414 36.9149C67.668 36.5789 66.9883 36.1219 66.4023 35.5438C65.8242 34.9657 65.3672 34.2899 65.0312 33.5164C64.6953 32.743 64.5273 31.9149 64.5273 31.0321C64.5273 30.0711 64.6953 29.1727 65.0312 28.3368C65.3672 27.5008 65.8242 26.7743 66.4023 26.1571C66.9883 25.5321 67.668 25.0399 68.4414 24.6805C69.2227 24.3211 70.0547 24.1414 70.9375 24.1414C71.4609 24.1414 71.9727 24.2079 72.4727 24.3407C72.9805 24.4735 73.4609 24.6688 73.9141 24.9266C74.375 25.1766 74.7969 25.4852 75.1797 25.8524C75.5703 26.2196 75.9062 26.6414 76.1875 27.118ZM80.9805 37.1727H77.7578V19.6297H80.9805V37.1727ZM88.4219 34.1024C88.5469 34.1414 88.6719 34.1688 88.7969 34.1844C88.9219 34.1922 89.0469 34.1961 89.1719 34.1961C89.4844 34.1961 89.7852 34.1532 90.0742 34.0672C90.3633 33.9813 90.6328 33.8602 90.8828 33.7039C91.1406 33.5399 91.3672 33.3446 91.5625 33.118C91.7656 32.8836 91.9297 32.6258 92.0547 32.3446L94.3984 34.7C94.1016 35.1219 93.7578 35.5008 93.3672 35.8368C92.9844 36.1727 92.5664 36.4579 92.1133 36.6922C91.668 36.9266 91.1953 37.1024 90.6953 37.2196C90.2031 37.3446 89.6953 37.4071 89.1719 37.4071C88.2891 37.4071 87.457 37.243 86.6758 36.9149C85.9023 36.5868 85.2227 36.1297 84.6367 35.5438C84.0586 34.9579 83.6016 34.2625 83.2656 33.4579C82.9297 32.6454 82.7617 31.7547 82.7617 30.786C82.7617 29.7938 82.9297 28.8875 83.2656 28.0672C83.6016 27.2469 84.0586 26.5477 84.6367 25.9696C85.2227 25.3914 85.9023 24.9422 86.6758 24.6219C87.457 24.3016 88.2891 24.1414 89.1719 24.1414C89.6953 24.1414 90.207 24.2039 90.707 24.3289C91.207 24.4539 91.6797 24.6336 92.125 24.868C92.5781 25.1024 93 25.3914 93.3906 25.7352C93.7812 26.0711 94.125 26.45 94.4219 26.8719L88.4219 34.1024ZM90.0625 27.5047C89.9141 27.45 89.7656 27.4149 89.6172 27.3993C89.4766 27.3836 89.3281 27.3758 89.1719 27.3758C88.7344 27.3758 88.3203 27.4579 87.9297 27.6219C87.5469 27.7782 87.2109 28.0047 86.9219 28.3016C86.6406 28.5985 86.418 28.9579 86.2539 29.3797C86.0898 29.7938 86.0078 30.2625 86.0078 30.786C86.0078 30.9032 86.0117 31.036 86.0195 31.1844C86.0352 31.3329 86.0547 31.4852 86.0781 31.6414C86.1094 31.7899 86.1445 31.9344 86.1836 32.075C86.2227 32.2157 86.2734 32.3407 86.3359 32.45L90.0625 27.5047ZM108.098 37.1727H107.324L106.082 35.45C105.777 35.7235 105.453 35.9813 105.109 36.2235C104.773 36.4579 104.418 36.6649 104.043 36.8446C103.668 37.0164 103.281 37.1532 102.883 37.2547C102.492 37.3563 102.094 37.4071 101.688 37.4071C100.805 37.4071 99.9727 37.2586 99.1914 36.9618C98.418 36.6649 97.7383 36.2352 97.1523 35.6727C96.5742 35.1024 96.1172 34.4071 95.7812 33.5868C95.4453 32.7664 95.2773 31.8329 95.2773 30.786C95.2773 29.8094 95.4453 28.9149 95.7812 28.1024C96.1172 27.2821 96.5742 26.5789 97.1523 25.993C97.7383 25.4071 98.418 24.9539 99.1914 24.6336C99.9727 24.3055 100.805 24.1414 101.688 24.1414C102.094 24.1414 102.496 24.1922 102.895 24.2938C103.293 24.3954 103.68 24.536 104.055 24.7157C104.43 24.8954 104.785 25.1063 105.121 25.3485C105.465 25.5907 105.785 25.8524 106.082 26.1336L107.324 24.6454H108.098V37.1727ZM104.875 30.786C104.875 30.3485 104.789 29.9266 104.617 29.5204C104.453 29.1063 104.227 28.743 103.938 28.4305C103.648 28.1102 103.309 27.8563 102.918 27.6688C102.535 27.4735 102.125 27.3758 101.688 27.3758C101.25 27.3758 100.836 27.45 100.445 27.5985C100.062 27.7469 99.7266 27.9657 99.4375 28.2547C99.1562 28.5438 98.9336 28.9032 98.7695 29.3329C98.6055 29.7547 98.5234 30.2391 98.5234 30.786C98.5234 31.3329 98.6055 31.8211 98.7695 32.2508C98.9336 32.6727 99.1562 33.0282 99.4375 33.3172C99.7266 33.6063 100.062 33.825 100.445 33.9735C100.836 34.1219 101.25 34.1961 101.688 34.1961C102.125 34.1961 102.535 34.1024 102.918 33.9149C103.309 33.7196 103.648 33.4657 103.938 33.1532C104.227 32.8329 104.453 32.4696 104.617 32.0633C104.789 31.6493 104.875 31.2235 104.875 30.786ZM113.746 37.1727H110.547V24.6219H111.32L112.375 25.8407C112.891 25.3719 113.473 25.0125 114.121 24.7625C114.777 24.5047 115.461 24.3758 116.172 24.3758C116.938 24.3758 117.66 24.5243 118.34 24.8211C119.02 25.1102 119.613 25.5125 120.121 26.0282C120.629 26.536 121.027 27.1336 121.316 27.8211C121.613 28.5008 121.762 29.2274 121.762 30.0008V37.1727H118.562V30.0008C118.562 29.6727 118.5 29.3641 118.375 29.075C118.25 28.7782 118.078 28.5204 117.859 28.3016C117.641 28.0829 117.387 27.911 117.098 27.786C116.809 27.661 116.5 27.5985 116.172 27.5985C115.836 27.5985 115.52 27.661 115.223 27.786C114.926 27.911 114.668 28.0829 114.449 28.3016C114.23 28.5204 114.059 28.7782 113.934 29.075C113.809 29.3641 113.746 29.6727 113.746 30.0008V37.1727ZM135.602 37.1727H131.688L129.191 33.3289L126.672 37.1727H122.758L127.34 30.7391L122.758 24.5516H126.672L129.191 28.1493L131.688 24.5516H135.602L131.008 30.7391L135.602 37.1727Z" fill="white"/>
<rect x="0.5" y="14.5" width="44" height="32" stroke="#1CFFF1"/>
<path d="M29.1073 21.4449L27.1748 26.6349C26.7708 26.2178 26.3258 25.8837 25.8399 25.6325C25.3485 25.3695 24.8453 25.1905 24.3302 25.0956C23.827 24.9953 23.3178 24.9763 22.8027 25.0388C22.2876 25.1012 21.7929 25.2401 21.3188 25.4555C20.6549 25.7572 20.0885 26.179 19.6197 26.7209C19.1627 27.2575 18.828 27.8744 18.6156 28.5715C18.4096 29.2515 18.3357 29.9859 18.3938 30.7747C18.4518 31.5635 18.6667 32.3669 19.0383 33.1849C19.3399 33.8487 19.7472 34.4145 20.26 34.8823C20.7729 35.3501 21.3424 35.7063 21.9684 35.9511C22.6063 36.1904 23.2723 36.3026 23.9662 36.2876C24.6721 36.2673 25.3569 36.1063 26.0208 35.8046C26.495 35.5892 26.9218 35.3166 27.3011 34.987C27.6805 34.6573 28.006 34.2877 28.2776 33.8783C28.5557 33.4516 28.7649 32.999 28.905 32.5206C29.0517 32.0249 29.1229 31.5206 29.1187 31.0076L34.2989 32.966C34.1393 33.8108 33.8789 34.6228 33.5178 35.4018C33.1685 36.1755 32.7309 36.8963 32.2049 37.5644C31.6908 38.227 31.0947 38.8196 30.4168 39.3421C29.7562 39.8711 29.0287 40.316 28.2345 40.6769C26.8949 41.2855 25.5193 41.6102 24.1076 41.6509C22.7024 41.6744 21.3559 41.4495 20.0683 40.9762C18.7924 40.4975 17.6331 39.7872 16.5901 38.8451C15.5471 37.9031 14.7213 36.7623 14.1127 35.4228C13.4502 33.9646 13.0857 32.4856 13.0191 30.9855C12.9526 29.4855 13.1452 28.0679 13.5969 26.7328C14.0551 25.3805 14.7472 24.1651 15.673 23.0865C16.6107 22.0026 17.7494 21.1563 19.0889 20.5477C19.8832 20.1869 20.7055 19.9348 21.5557 19.7917C22.4178 19.6431 23.2815 19.6082 24.1469 19.687C25.0186 19.7486 25.8715 19.926 26.7056 20.2193C27.5514 20.5071 28.352 20.9157 29.1073 21.4449Z" fill="white"/>
</svg>
