<svg width="125" height="118" viewBox="0 0 125 118" fill="none" xmlns="http://www.w3.org/2000/svg">
<g filter="url(#filter0_d_11:13)">
<ellipse cx="62.5" cy="59" rx="42.5" ry="39" fill="white" fill-opacity="0.63"/>
<path d="M46.516 52.308C46.276 51.3 45.856 50.544 45.256 50.04C44.68 49.536 43.84 49.284 42.736 49.284C41.08 49.284 39.856 49.956 39.064 51.3C38.296 52.62 37.9 54.78 37.876 57.78C38.452 56.82 39.292 56.076 40.396 55.548C41.5 54.996 42.7 54.72 43.996 54.72C45.556 54.72 46.936 55.056 48.136 55.728C49.336 56.4 50.272 57.384 50.944 58.68C51.616 59.952 51.952 61.488 51.952 63.288C51.952 64.992 51.604 66.516 50.908 67.86C50.236 69.18 49.24 70.212 47.92 70.956C46.6 71.7 45.028 72.072 43.204 72.072C40.708 72.072 38.74 71.52 37.3 70.416C35.884 69.312 34.888 67.776 34.312 65.808C33.76 63.816 33.484 61.368 33.484 58.464C33.484 54.072 34.24 50.76 35.752 48.528C37.264 46.272 39.652 45.144 42.916 45.144C45.436 45.144 47.392 45.828 48.784 47.196C50.176 48.564 50.98 50.268 51.196 52.308H46.516ZM42.844 58.86C41.572 58.86 40.504 59.232 39.64 59.976C38.776 60.72 38.344 61.8 38.344 63.216C38.344 64.632 38.74 65.748 39.532 66.564C40.348 67.38 41.488 67.788 42.952 67.788C44.248 67.788 45.268 67.392 46.012 66.6C46.78 65.808 47.164 64.74 47.164 63.396C47.164 62.004 46.792 60.9 46.048 60.084C45.328 59.268 44.26 58.86 42.844 58.86ZM55.9353 58.536C55.9353 54.384 56.6793 51.132 58.1673 48.78C59.6793 46.428 62.1753 45.252 65.6553 45.252C69.1353 45.252 71.6193 46.428 73.1073 48.78C74.6193 51.132 75.3753 54.384 75.3753 58.536C75.3753 62.712 74.6193 65.988 73.1073 68.364C71.6193 70.74 69.1353 71.928 65.6553 71.928C62.1753 71.928 59.6793 70.74 58.1673 68.364C56.6793 65.988 55.9353 62.712 55.9353 58.536ZM70.4073 58.536C70.4073 56.76 70.2873 55.272 70.0473 54.072C69.8313 52.848 69.3753 51.852 68.6793 51.084C68.0073 50.316 66.9993 49.932 65.6553 49.932C64.3113 49.932 63.2913 50.316 62.5953 51.084C61.9233 51.852 61.4673 52.848 61.2273 54.072C61.0113 55.272 60.9033 56.76 60.9033 58.536C60.9033 60.36 61.0113 61.896 61.2273 63.144C61.4433 64.368 61.8993 65.364 62.5953 66.132C63.2913 66.876 64.3113 67.248 65.6553 67.248C66.9993 67.248 68.0193 66.876 68.7153 66.132C69.4113 65.364 69.8673 64.368 70.0833 63.144C70.2993 61.896 70.4073 60.36 70.4073 58.536ZM98.6128 61.38H91.8088V68.364H87.0568V61.38H80.2528V56.988H87.0568V50.004H91.8088V56.988H98.6128V61.38Z" fill="#0089D7"/>
</g>
<defs>
<filter id="filter0_d_11:13" x="0" y="0" width="125" height="118" filterUnits="userSpaceOnUse" color-interpolation-filters="sRGB">
<feFlood flood-opacity="0" result="BackgroundImageFix"/>
<feColorMatrix in="SourceAlpha" type="matrix" values="0 0 0 0 0 0 0 0 0 0 0 0 0 0 0 0 0 0 127 0" result="hardAlpha"/>
<feOffset/>
<feGaussianBlur stdDeviation="10"/>
<feComposite in2="hardAlpha" operator="out"/>
<feColorMatrix type="matrix" values="0 0 0 0 0 0 0 0 0 0 0 0 0 0 0 0 0 0 0.25 0"/>
<feBlend mode="normal" in2="BackgroundImageFix" result="effect1_dropShadow_11:13"/>
<feBlend mode="normal" in="SourceGraphic" in2="effect1_dropShadow_11:13" result="shape"/>
</filter>
</defs>
</svg>
