<svg width="98" height="95" viewBox="0 0 98 95" fill="none" xmlns="http://www.w3.org/2000/svg">
<path d="M0 10C0 4.47715 4.47715 0 10 0H78C89.0457 0 98 8.95431 98 20V85C98 90.5228 93.5228 95 88 95H20C8.95431 95 0 86.0457 0 75V10Z" fill="url(#paint0_linear_47:2)"/>
<g clip-path="url(#clip0_47:2)">
<path d="M70.6192 35.4286H38.1644C37.8053 35.4286 37.5153 35.7694 37.5153 36.189V64.4017C37.3043 64.3516 37.0875 64.3226 36.8662 64.3226C35.0768 64.3226 33.6208 66.0282 33.6208 68.1244V68.1404C32.9859 68.6999 32.5536 69.5089 32.3939 70.4056H31.6735C31.3144 70.4056 31.0244 70.7464 31.0244 71.1659V74.2074C31.0244 74.6269 31.3144 74.9678 31.6735 74.9678H32.3226V77.2489C32.3226 80.1838 34.3615 82.5715 36.8662 82.5715H70.6192C70.9783 82.5715 71.2683 82.2306 71.2683 81.8111V36.189C71.2683 35.7694 70.9783 35.4286 70.6192 35.4286ZM69.9701 36.9493V44.553H38.8135V36.9493H69.9701ZM34.6223 69.1867C34.8527 69.0344 34.982 68.7341 34.9481 68.4263L34.9377 68.3379C34.9294 68.2681 34.919 68.1983 34.919 68.1244C34.919 66.8669 35.7928 65.8433 36.8662 65.8433C37.5518 65.8433 38.1743 66.2621 38.5318 66.965C38.6291 67.1565 38.7942 67.2887 38.9821 67.3255C39.171 67.3633 39.3634 67.3002 39.5092 67.1551C39.7625 66.9033 40.1843 66.6037 40.7608 66.6037C41.4552 66.6037 42.1024 67.053 42.4498 67.7762C42.5848 68.0591 42.8599 68.2095 43.13 68.1527C43.8076 68.0112 44.5017 68.5562 44.6307 69.3638C44.6769 69.6526 44.8611 69.8854 45.1045 69.96C45.3492 70.0361 45.6049 69.9377 45.7672 69.712C46.1418 69.1867 46.6832 68.8848 47.2518 68.8848C48.0967 68.8848 48.8108 69.5227 49.0796 70.4056H33.7507C33.9082 69.9021 34.2055 69.461 34.6223 69.1867V69.1867ZM43.3572 62.0415C43.3572 54.9138 48.3072 49.1152 54.3918 49.1152C60.4765 49.1152 65.4264 54.9138 65.4264 62.0415C65.4264 69.1692 60.4765 74.9678 54.3918 74.9678C53.4759 74.9678 52.5802 74.8233 51.708 74.5672C51.759 74.4584 51.7954 74.3396 51.7954 74.2074V73.0349C52.6366 73.3071 53.5057 73.447 54.3918 73.447C59.7605 73.447 64.1282 68.3305 64.1282 62.0415C64.1282 55.7525 59.7605 50.636 54.3918 50.636C49.0232 50.636 44.6554 55.7525 44.6554 62.0415C44.6554 64.046 45.1001 65.9796 45.9393 67.6971C45.7938 67.774 45.6525 67.8612 45.5181 67.9633C45.1888 67.3823 44.6944 66.9527 44.122 66.7444C43.6215 65.2463 43.3572 63.6688 43.3572 62.0415V62.0415ZM47.2895 67.3685C46.7729 66.4266 46.397 65.4008 46.1796 64.3226H46.6027C47.1941 64.3226 47.751 64.0527 48.1696 63.5622L48.55 63.1174C48.8973 62.7105 49.5008 62.7105 49.8482 63.1174L50.2285 63.5622C51.0665 64.5424 52.5244 64.5431 53.3624 63.5622L53.7427 63.1174C54.0901 62.7105 54.6935 62.7105 55.0409 63.1174L55.4212 63.5622C56.2592 64.5424 57.7172 64.5431 58.5552 63.5622L58.9355 63.1174C59.2829 62.7105 59.8863 62.7105 60.2337 63.1174L60.614 63.5622C61.0333 64.0527 61.5895 64.3226 62.181 64.3226H62.5946C61.7116 68.675 58.3732 71.9263 54.3918 71.9263C53.5012 71.9263 52.6315 71.7559 51.7954 71.4388V71.1659C51.7954 70.7464 51.5054 70.4056 51.1463 70.4056H50.4316C50.1324 68.6862 48.8393 67.3901 47.2895 67.3685ZM45.9536 62.0415C45.9536 56.5912 49.7391 52.1567 54.3918 52.1567C59.0445 52.1567 62.8301 56.5912 62.8301 62.0415C62.8301 62.2984 62.8139 62.5501 62.7971 62.8019H62.181C61.9356 62.8019 61.7059 62.6901 61.5319 62.487L61.1515 62.0415C60.3135 61.0613 58.8556 61.0606 58.0176 62.0415L57.6373 62.4863C57.2899 62.8932 56.6865 62.8932 56.3391 62.4863L55.9588 62.0415C55.1208 61.0613 53.6629 61.0606 52.8249 62.0415L52.4445 62.4863C52.0972 62.8932 51.4937 62.8932 51.1463 62.4863L50.766 62.0415C49.928 61.0613 48.4701 61.0606 47.6321 62.0415L47.2518 62.4863C47.0778 62.6901 46.848 62.8019 46.6027 62.8019H45.9783C45.9621 62.5501 45.9536 62.2962 45.9536 62.0415ZM32.3226 71.9263H50.4972V73.447H32.3226V71.9263ZM45.3045 81.0507H36.8662C35.0768 81.0507 33.6208 79.3451 33.6208 77.2489V74.9678H49.1991V77.2489C49.1991 79.3451 47.743 81.0507 45.9536 81.0507H45.3045ZM49.1271 81.0507C49.9714 80.0835 50.4972 78.7377 50.4972 77.2489V75.7404C51.7488 76.2294 53.0534 76.4885 54.3918 76.4885C61.1924 76.4885 66.7246 70.0079 66.7246 62.0415C66.7246 54.0751 61.1924 47.5945 54.3918 47.5945C47.5912 47.5945 42.059 54.0751 42.059 62.0415C42.059 63.2786 42.2051 64.4874 42.4653 65.664C41.9604 65.2927 41.3728 65.083 40.7608 65.083C40.2306 65.083 39.706 65.2419 39.2366 65.5408C39.1077 65.3767 38.9628 65.2352 38.8135 65.1012V46.0738H69.9701V81.0507H49.1271Z" fill="white"/>
<path d="M28.4516 23.6774C30.0521 23.6774 31.3548 22.3747 31.3548 20.7742C31.3548 19.1737 30.0521 17.871 28.4516 17.871C26.8512 17.871 25.5484 19.1737 25.5484 20.7742C25.5484 22.3747 26.8512 23.6774 28.4516 23.6774ZM28.4516 19.8065C28.9856 19.8065 29.4194 20.2412 29.4194 20.7742C29.4194 21.3072 28.9856 21.7419 28.4516 21.7419C27.9177 21.7419 27.4839 21.3072 27.4839 20.7742C27.4839 20.2412 27.9177 19.8065 28.4516 19.8065Z" fill="white"/>
<path d="M36.1935 23.6774C37.794 23.6774 39.0968 22.3747 39.0968 20.7742C39.0968 19.1737 37.794 17.871 36.1935 17.871C34.5931 17.871 33.2903 19.1737 33.2903 20.7742C33.2903 22.3747 34.5931 23.6774 36.1935 23.6774ZM36.1935 19.8065C36.7275 19.8065 37.1613 20.2412 37.1613 20.7742C37.1613 21.3072 36.7275 21.7419 36.1935 21.7419C35.6596 21.7419 35.2258 21.3072 35.2258 20.7742C35.2258 20.2412 35.6596 19.8065 36.1935 19.8065Z" fill="white"/>
<path d="M43.9355 23.6774C45.5359 23.6774 46.8387 22.3747 46.8387 20.7742C46.8387 19.1737 45.5359 17.871 43.9355 17.871C42.335 17.871 41.0323 19.1737 41.0323 20.7742C41.0323 22.3747 42.335 23.6774 43.9355 23.6774ZM43.9355 19.8065C44.4694 19.8065 44.9032 20.2412 44.9032 20.7742C44.9032 21.3072 44.4694 21.7419 43.9355 21.7419C43.4015 21.7419 42.9677 21.3072 42.9677 20.7742C42.9677 20.2412 43.4015 19.8065 43.9355 19.8065Z" fill="white"/>
<path d="M66.1935 21.7419H68.129V23.6774H66.1935V21.7419Z" fill="white"/>
<path d="M66.1935 17.871H68.129V19.8065H66.1935V17.871Z" fill="white"/>
<path d="M62.3226 21.7419H64.2581V23.6774H62.3226V21.7419Z" fill="white"/>
<path d="M62.3226 17.871H64.2581V19.8065H62.3226V17.871Z" fill="white"/>
<path d="M58.4516 21.7419H60.3871V23.6774H58.4516V21.7419Z" fill="white"/>
<path d="M58.4516 17.871H60.3871V19.8065H58.4516V17.871Z" fill="white"/>
<path d="M54.5806 21.7419H56.5161V23.6774H54.5806V21.7419Z" fill="white"/>
<path d="M54.5806 17.871H56.5161V19.8065H54.5806V17.871Z" fill="white"/>
</g>
<defs>
<linearGradient id="paint0_linear_47:2" x1="2.5" y1="6" x2="88.5" y2="86" gradientUnits="userSpaceOnUse">
<stop stop-color="#FDB0FF"/>
<stop offset="1" stop-color="#6B0054"/>
</linearGradient>
<clipPath id="clip0_47:2">
<rect width="60" height="60" fill="white" transform="translate(12 14)"/>
</clipPath>
</defs>
</svg>
