<svg width="98" height="95" viewBox="0 0 98 95" fill="none" xmlns="http://www.w3.org/2000/svg">
<path d="M0 10C0 4.47715 4.47715 0 10 0H78C89.0457 0 98 8.95431 98 20V85C98 90.5228 93.5229 95 88 95H20C8.95431 95 0 86.0457 0 75V10Z" fill="url(#paint0_linear)"/>
<path d="M36.6917 54.2262V62.6051C36.6917 62.8045 36.7709 62.9958 36.9119 63.1368C37.0529 63.2778 37.2442 63.3571 37.4436 63.3571H52.053C52.2524 63.3571 52.4437 63.2778 52.5847 63.1368C52.7257 62.9958 52.8049 62.8045 52.8049 62.6051V54.2262C52.805 54.1274 52.7856 54.0296 52.7478 53.9384C52.7101 53.8471 52.6547 53.7642 52.5848 53.6944C52.515 53.6245 52.4321 53.5691 52.3408 53.5314C52.2496 53.4936 52.1518 53.4742 52.053 53.4742H37.4436C37.3448 53.4742 37.247 53.4936 37.1558 53.5314C37.0645 53.5691 36.9816 53.6245 36.9118 53.6944C36.8419 53.7642 36.7865 53.8471 36.7488 53.9384C36.711 54.0296 36.6916 54.1274 36.6917 54.2262ZM38.1956 54.9781H51.301V61.8531H38.1956V54.9781Z" fill="white"/>
<path d="M39.592 34.5073C39.3926 34.5073 39.2013 34.5865 39.0603 34.7276C38.9193 34.8686 38.8401 35.0598 38.8401 35.2593C38.8401 35.4587 38.9193 35.65 39.0603 35.791C39.2013 35.932 39.3926 36.0112 39.592 36.0112H49.9045C50.104 36.0112 50.2952 35.932 50.4363 35.791C50.5773 35.65 50.6565 35.4587 50.6565 35.2593C50.6565 35.0598 50.5773 34.8686 50.4363 34.7276C50.2952 34.5865 50.104 34.5073 49.9045 34.5073H39.592Z" fill="white"/>
<path d="M39.592 39.377H49.9045C50.104 39.377 50.2952 39.2977 50.4363 39.1567C50.5773 39.0157 50.6565 38.8244 50.6565 38.625C50.6565 38.4256 50.5773 38.2343 50.4363 38.0933C50.2952 37.9523 50.104 37.873 49.9045 37.873H39.592C39.3926 37.873 39.2013 37.9523 39.0603 38.0933C38.9193 38.2343 38.8401 38.4256 38.8401 38.625C38.8401 38.8244 38.9193 39.0157 39.0603 39.1567C39.2013 39.2977 39.3926 39.377 39.592 39.377Z" fill="white"/>
<path d="M39.592 42.7427H49.9045C50.0033 42.7427 50.1011 42.7232 50.1923 42.6854C50.2835 42.6476 50.3664 42.5923 50.4363 42.5224C50.5061 42.4526 50.5615 42.3697 50.5993 42.2785C50.637 42.1873 50.6565 42.0895 50.6565 41.9907C50.6565 41.892 50.637 41.7942 50.5993 41.703C50.5615 41.6117 50.5061 41.5288 50.4363 41.459C50.3664 41.3892 50.2835 41.3338 50.1923 41.296C50.1011 41.2582 50.0033 41.2388 49.9045 41.2388H39.592C39.3926 41.2388 39.2013 41.318 39.0603 41.459C38.9193 41.6 38.8401 41.7913 38.8401 41.9907C38.8401 42.1902 38.9193 42.3814 39.0603 42.5224C39.2013 42.6635 39.3926 42.7427 39.592 42.7427Z" fill="white"/>
<path d="M76.6337 28.3409C76.5333 28.2718 76.4176 28.2281 76.2966 28.2136C76.1756 28.1991 76.0528 28.2141 75.9389 28.2575L72.2664 29.6583H70.6185C69.6234 27.1717 67.0895 23.353 60.7718 22.1512C57.1697 21.4499 53.4517 21.6245 49.9312 22.6604V20.793C49.9311 20.5936 49.8519 20.4025 49.711 20.2615C49.5701 20.1206 49.379 20.0412 49.1797 20.041H40.317C40.1176 20.0411 39.9264 20.1204 39.7854 20.2614C39.6444 20.4024 39.5651 20.5936 39.565 20.793V27.6422H38.3619C36.8464 27.6404 35.3884 28.2218 34.2899 29.2658C33.1914 30.3098 32.5367 31.7364 32.4614 33.25L31.2806 56.2955C30.7823 55.9446 30.1971 55.7375 29.589 55.6967C28.9809 55.6559 28.3733 55.783 27.8326 56.0641C27.2918 56.3452 26.8387 56.7695 26.5228 57.2907C26.2068 57.8118 26.0402 58.4098 26.041 59.0193V67.6289C26.0405 68.2856 26.2342 68.9278 26.598 69.4746C26.9617 70.0214 27.4791 70.4483 28.0849 70.7017C28.6908 70.955 29.3581 71.0234 30.0028 70.8982C30.6475 70.773 31.2407 70.4599 31.7077 69.9982C32.3273 70.6104 33.1622 70.9553 34.0332 70.959H55.4617C56.3331 70.9552 57.1683 70.61 57.7881 69.9973C58.255 70.4591 58.8482 70.7724 59.4929 70.8977C60.1375 71.0229 60.8049 70.9547 61.4108 70.7014C62.0167 70.4482 62.5342 70.0213 62.898 69.4746C63.2618 68.9278 63.4557 68.2856 63.4552 67.6289V59.0193C63.456 58.4098 63.2893 57.8118 62.9733 57.2906C62.6573 56.7694 62.2042 56.3451 61.6634 56.0641C61.1226 55.783 60.5149 55.656 59.9068 55.6968C59.2987 55.7377 58.7135 55.945 58.2152 56.2959L57.0378 33.2496C56.9604 31.7364 56.3046 30.3107 55.206 29.2671C54.1074 28.2236 52.65 27.6419 51.1348 27.6422H49.9316V24.2524C53.3441 23.167 56.9739 22.9526 60.4904 23.6289C65.6543 24.6116 67.9579 27.5081 68.9758 29.6587H68.538C68.3386 29.6588 68.1474 29.7381 68.0064 29.8791C67.8654 30.0201 67.7861 30.2113 67.786 30.4107V39.0547C67.7864 39.2351 67.8517 39.4093 67.9701 39.5454C68.0885 39.6816 68.252 39.7705 68.4305 39.7959V63.3428C68.2571 63.3672 68.0977 63.4516 67.98 63.5812C67.8623 63.7109 67.7936 63.8777 67.786 64.0526L67.5282 70.1744C67.524 70.2757 67.5403 70.3768 67.5761 70.4716C67.6119 70.5664 67.6666 70.653 67.7367 70.7262C67.8069 70.7993 67.8911 70.8576 67.9844 70.8974C68.0776 70.9371 68.1779 70.9577 68.2793 70.9577H72.6621C72.7634 70.9578 72.8637 70.9374 72.957 70.8977C73.0502 70.8581 73.1345 70.8 73.2047 70.7269C73.275 70.6539 73.3297 70.5674 73.3657 70.4727C73.4017 70.3779 73.4181 70.2769 73.4141 70.1757L73.1563 64.0539C73.1486 63.8789 73.08 63.7122 72.9623 63.5825C72.8445 63.4528 72.6851 63.3685 72.5117 63.3441V39.7972C72.6906 39.7719 72.8544 39.6829 72.9728 39.5464C73.0912 39.41 73.1564 39.2354 73.1563 39.0547V33.3196L76.3114 32.8736C76.4905 32.8478 76.6542 32.7583 76.7726 32.6215C76.891 32.4847 76.9561 32.3099 76.956 32.129V28.96C76.9563 28.8385 76.9271 28.7186 76.871 28.6108C76.8149 28.503 76.7335 28.4104 76.6337 28.3409ZM41.0689 21.5449H48.4273V23.2014C45.9068 24.252 44.1175 25.8048 43.3029 27.6422H41.0685L41.0689 21.5449ZM29.3711 69.4551C28.8869 69.4545 28.4228 69.2619 28.0804 68.9196C27.7381 68.5772 27.5455 68.1131 27.5449 67.6289V59.0193C27.5449 58.5349 27.7373 58.0704 28.0798 57.728C28.4223 57.3855 28.8868 57.1931 29.3711 57.1931C29.8554 57.1931 30.3199 57.3855 30.6624 57.728C31.0049 58.0704 31.1973 58.5349 31.1973 59.0193V67.6289C31.1967 68.1131 31.0041 68.5772 30.6618 68.9196C30.3194 69.2619 29.8553 69.4545 29.3711 69.4551ZM60.1251 57.1931C60.6093 57.1937 61.0734 57.3862 61.4158 57.7286C61.7581 58.0709 61.9507 58.5351 61.9513 59.0193V67.6289C61.9513 68.1132 61.7589 68.5777 61.4164 68.9202C61.0739 69.2627 60.6095 69.4551 60.1251 69.4551C59.6408 69.4551 59.1763 69.2627 58.8338 68.9202C58.4913 68.5777 58.2989 68.1132 58.2989 67.6289V59.0193C58.2995 58.5351 58.4921 58.0709 58.8344 57.7286C59.1768 57.3862 59.641 57.1937 60.1251 57.1931ZM55.5356 33.3265L56.8281 58.584C56.8082 58.7282 56.7975 58.8736 56.7963 59.0193V67.6289C56.7968 67.9809 56.8532 68.3306 56.9635 68.6649C56.7959 68.9081 56.5719 69.1071 56.3106 69.2448C56.0492 69.3824 55.7584 69.4546 55.463 69.4551H34.0332C33.7381 69.4543 33.4476 69.3821 33.1865 69.2446C32.9254 69.107 32.7015 68.9083 32.534 68.6653C32.6443 68.3309 32.7007 67.981 32.7012 67.6289V59.0193C32.7 58.873 32.6893 58.7271 32.6689 58.5823L33.9632 33.3257C34.0194 32.1977 34.5074 31.1347 35.3259 30.3566C36.1444 29.5786 37.2308 29.1451 38.3602 29.1461H40.3066H40.317H49.1797H49.19H51.1348C52.2643 29.146 53.3508 29.5798 54.1698 30.3577C54.9887 31.1357 55.4777 32.1984 55.5356 33.3265ZM45.0006 27.6422C45.8567 26.4063 47.0445 25.4373 48.4273 24.8471V27.6422H45.0006ZM69.9336 63.332V39.8066H71.0078V63.332H69.9336ZM71.6523 32.6648V38.3027H69.2891V31.1622H71.6523V32.6648ZM69.0652 69.4538L69.2586 64.8359H71.6837L71.8771 69.4538H69.0652ZM75.4551 31.4759L73.1571 31.8007V30.9284L75.4551 30.0519V31.4759Z" fill="white"/>
<defs>
<linearGradient id="paint0_linear" x1="2.5" y1="6" x2="88.5" y2="86" gradientUnits="userSpaceOnUse">
<stop stop-color="#FFD39F"/>
<stop offset="1" stop-color="#CF8A03"/>
</linearGradient>
</defs>
</svg>
