<svg width="98" height="95" viewBox="0 0 98 95" fill="none" xmlns="http://www.w3.org/2000/svg">
<path d="M0 10C0 4.47715 4.47715 0 10 0H78C89.0457 0 98 8.95431 98 20V85C98 90.5228 93.5229 95 88 95H20C8.95431 95 0 86.0457 0 75V10Z" fill="url(#paint0_linear)"/>
<path d="M51.3132 28.8242V75H62.3434V66.64H65.9698V75H77V28.8242H51.3132ZM71.1576 57.1099H57.1557V53.4835H71.1576V57.1099ZM71.1576 48.2857H57.1557V44.6593H71.1576V48.2857ZM71.1576 39.4615H57.1557V35.8351H71.1576V39.4615Z" fill="white"/>
<path d="M22 75H33.0302V66.64H36.6566V75H47.6868V20H22V75ZM27.8425 27.011H41.8444V30.6374H27.8425V27.011ZM27.8425 35.8352H41.8444V39.4615H27.8425V35.8352ZM27.8425 44.6593H41.8444V48.2857H27.8425V44.6593ZM27.8425 53.4835H41.8444V57.1099H27.8425V53.4835Z" fill="white"/>
<defs>
<linearGradient id="paint0_linear" x1="2.5" y1="6" x2="88.5" y2="86" gradientUnits="userSpaceOnUse">
<stop stop-color="#B0FAFF"/>
<stop offset="1" stop-color="#006B6B"/>
</linearGradient>
</defs>
</svg>
